<?xml version="1.0" encoding="UTF-8" standalone="no"?>
<svg
   width="1200pt"
   height="1200pt"
   version="1.1"
   viewBox="0 0 1200 1200"
   id="svg834"
   sodipodi:docname="4949-fuego-logo.svg"
   inkscape:version="1.1.1 (c3084ef, 2021-09-22)"
   xmlns:inkscape="http://www.inkscape.org/namespaces/inkscape"
   xmlns:sodipodi="http://sodipodi.sourceforge.net/DTD/sodipodi-0.dtd"
   xmlns="http://www.w3.org/2000/svg"
   xmlns:svg="http://www.w3.org/2000/svg">
  <defs
     id="defs838" />
  <sodipodi:namedview
     id="namedview836"
     pagecolor="#ffffff"
     bordercolor="#666666"
     borderopacity="1.0"
     inkscape:pageshadow="2"
     inkscape:pageopacity="0.0"
     inkscape:pagecheckerboard="0"
     inkscape:document-units="pt"
     showgrid="false"
     inkscape:zoom="0.391875"
     inkscape:cx="800"
     inkscape:cy="800"
     inkscape:window-width="1576"
     inkscape:window-height="931"
     inkscape:window-x="214"
     inkscape:window-y="23"
     inkscape:window-maximized="0"
     inkscape:current-layer="svg834" />
  <g
     fill="#ff001e"
     id="g832">
    <path
       d="m1112.1 1024.2h-105.47c11.016-14.766 17.578-33.047 17.578-52.734s-6.5625-37.969-17.578-52.734h105.47c48.516 0 87.891-39.375 87.891-87.891s-39.375-87.891-87.891-87.891h-1024.2c-48.516 0-87.891 39.375-87.891 87.891s39.375 87.891 87.891 87.891h105.47c-11.016 14.766-17.578 33.047-17.578 52.734s6.5625 37.969 17.578 52.734h-105.47c-48.516 0-87.891 39.375-87.891 87.891s39.375 87.891 87.891 87.891h1024.2c48.516 0 87.891-39.375 87.891-87.891s-39.375-87.891-87.891-87.891zm0-140.62h-379.45c7.2656-20.391 26.719-35.156 49.688-35.156h379.45c-7.2656 20.391-26.719 35.156-49.688 35.156zm-123.05 87.891c0 29.062-23.672 52.734-52.734 52.734s-52.734-23.672-52.734-52.734 23.672-52.734 52.734-52.734 52.734 23.672 52.734 52.734zm-123.05 52.734h-83.672c11.016-14.766 17.578-33.047 17.578-52.734s-6.5625-37.969-17.578-52.734h83.672c-11.016 14.766-17.578 33.047-17.578 52.734s6.5625 37.969 17.578 52.734zm-101.25-52.734c0 29.062-23.672 52.734-52.734 52.734s-52.734-23.672-52.734-52.734 23.672-52.734 52.734-52.734 52.734 23.672 52.734 52.734zm-676.88-87.891c-29.062 0-52.734-23.672-52.734-52.734s23.672-52.734 52.734-52.734 52.734 23.672 52.734 52.734-23.672 52.734-52.734 52.734zm491.48-105.47c-7.2656 20.391-26.719 35.156-49.688 35.156h-355.78c-2.5781-12.891-8.2031-24.844-15.938-35.156zm-421.17 105.47c7.7344-10.312 13.125-22.266 15.938-35.156h355.55c42.422 0 78.047-30.234 86.016-70.312h496.41c22.969 0 42.422 14.766 49.688 35.156h-379.45c-42.422 0-78.047 30.234-86.016 70.312zm483.75 140.62h-83.672c11.016-14.766 17.578-33.047 17.578-52.734s-6.5625-37.969-17.578-52.734h83.672c-11.016 14.766-17.578 33.047-17.578 52.734-0.23438 19.688 6.3281 37.969 17.578 52.734zm-101.25-52.734c0 29.062-23.672 52.734-52.734 52.734s-52.734-23.672-52.734-52.734 23.672-52.734 52.734-52.734 52.734 23.672 52.734 52.734zm-123.05 52.734h-83.672c11.016-14.766 17.578-33.047 17.578-52.734s-6.5625-37.969-17.578-52.734h83.672c-11.016 14.766-17.578 33.047-17.578 52.734s6.5625 37.969 17.578 52.734zm-101.25-52.734c0 29.062-23.672 52.734-52.734 52.734s-52.734-23.672-52.734-52.734 23.672-52.734 52.734-52.734 52.734 23.672 52.734 52.734zm-228.52 193.36c-29.062 0-52.734-23.672-52.734-52.734s23.672-52.734 52.734-52.734 52.734 23.672 52.734 52.734-23.672 52.734-52.734 52.734zm70.312 0c7.7344-10.312 13.125-22.266 15.938-35.156h692.11c22.969 0 42.422 14.766 49.688 35.156zm953.91 0h-160.08c-8.2031-40.078-43.594-70.312-86.016-70.312h-692.11c-2.5781-12.891-8.2031-24.844-15.938-35.156h953.91c29.062 0 52.734 23.672 52.734 52.734s-23.438 52.734-52.5 52.734z"
       id="path824"
       style="fill:#005073;fill-opacity:1" />
    <path
       d="m600 567.19c61.406 0 111.33-49.922 111.33-111.33s-49.922-111.33-111.33-111.33-111.33 49.922-111.33 111.33 49.922 111.33 111.33 111.33zm0-187.5c41.953 0 76.172 34.219 76.172 76.172s-34.219 76.172-76.172 76.172-76.172-34.219-76.172-76.172 34.219-76.172 76.172-76.172z"
       id="path826"
       style="fill:#ea5324;fill-opacity:1" />
    <path
       d="m600 637.5c100.08 0 181.64-81.562 181.64-181.64 0-42.656-14.297-82.734-41.484-115.55l-126.56-153.05c-3.2812-3.9844-8.2031-6.3281-13.594-6.3281-5.1562 0-10.312 2.3438-13.594 6.3281l-126.56 153.05c-27.188 32.812-41.484 72.891-41.484 115.55 0 100.08 81.562 181.64 181.64 181.64zm-112.97-274.92 112.97-136.64 112.97 136.64c21.797 26.484 33.516 58.828 33.516 93.281 0 80.859-65.625 146.48-146.48 146.48s-146.48-65.625-146.48-146.48c0-34.453 11.484-66.797 33.516-93.281z"
       id="path828"
       style="fill:#ea5324;fill-opacity:1" />
    <path
       d="m600 707.81c158.2 0 287.11-128.91 287.11-287.11 0-39.141-7.7344-77.344-23.203-113.2l-87.422-209.3c-6.0938-14.531-18.281-25.781-33.516-30.234-15.234-4.6875-31.406-2.1094-44.766 6.5625l-7.5 4.9219-49.922-60.234c-10.078-12.188-24.844-19.219-40.781-19.219s-30.703 7.0312-40.781 19.219l-49.688 60.234-7.5-4.9219c-13.359-8.9062-29.766-11.25-45-6.5625s-27.422 15.703-33.516 30.234l-87.422 209.06c-15.469 35.859-23.203 74.062-23.203 113.44 0 158.2 128.91 287.11 287.11 287.11zm-231.56-386.72 87.422-209.3c2.1094-4.9219 6.0938-8.6719 11.25-10.312 1.4062-0.46875 3.0469-0.70312 5.3906-0.70312 2.8125 0 6.3281 0.70312 9.8438 3.0469l20.625 13.828c7.5 4.9219 17.578 3.5156 23.203-3.5156l59.766-72.422c4.6875-5.625 10.547-6.5625 13.828-6.5625s9.1406 0.9375 13.828 6.5625l59.766 72.422c5.625 7.0312 15.703 8.4375 23.203 3.5156l20.625-13.828c6.0938-3.9844 11.953-3.0469 15-2.1094 5.1562 1.6406 9.1406 5.3906 11.25 10.312l87.422 209.3v0.23438c13.594 31.406 20.391 64.922 20.391 99.375 0 138.98-112.97 251.95-251.95 251.95s-251.95-112.97-251.95-251.95c0.70312-34.688 7.5-68.203 21.094-99.844z"
       id="path830"
       style="fill:#ea5324;fill-opacity:1" />
  </g>
</svg>
